<svg xmlns="http://www.w3.org/2000/svg" viewBox="0 0 128 128" aria-hidden="true"><defs><linearGradient id="gold" x1="0" y1="0" x2=".8" y2="1"><stop stop-color="#fff4c0"/><stop offset=".3" stop-color="#f6c85a"/><stop offset=".6" stop-color="#c77a19"/><stop offset="1" stop-color="#ffe391"/></linearGradient><linearGradient id="ruby" x1="0" y1="0" x2=".8" y2="1"><stop stop-color="#ffadc3"/><stop offset=".35" stop-color="#ed3666"/><stop offset="1" stop-color="#870d3b"/></linearGradient><linearGradient id="ice" x1="0" y1="0" x2=".8" y2="1"><stop stop-color="#edffff"/><stop offset=".35" stop-color="#6eeaf4"/><stop offset="1" stop-color="#2460b3"/></linearGradient><linearGradient id="silver" x1="0" y1="0" x2="1" y2="1"><stop stop-color="#fcf1df"/><stop offset=".4" stop-color="#b7b8ca"/><stop offset="1" stop-color="#505370"/></linearGradient><linearGradient id="violet" x1="0" y1="0" x2=".7" y2="1"><stop stop-color="#e7baff"/><stop offset=".4" stop-color="#a053e3"/><stop offset="1" stop-color="#4d216e"/></linearGradient><linearGradient id="flame" x2="0" y2="1"><stop stop-color="#fff6b4"/><stop offset=".4" stop-color="#ffbc39"/><stop offset="1" stop-color="#f23a58"/></linearGradient><linearGradient id="leaf" x2=".8" y2="1"><stop stop-color="#d1f797"/><stop offset="1" stop-color="#288956"/></linearGradient></defs><ellipse cx="64" cy="111" rx="34" ry="5" fill="#151325" opacity=".18"/><g stroke-linejoin="round" stroke-linecap="round"><path d="M105 34 87 49q-10-11-24-11-22 0-22 26t22 26q14 0 24-12l18 16q-17 19-44 19-44 0-44-49t44-49q27 0 44 19Z" fill="url(#violet)" fill-rule="evenodd" stroke="#322641" stroke-width="3"/><path d="M32 25h15" stroke="#fff5d7" stroke-width="2"/></g></svg>