<svg xmlns="http://www.w3.org/2000/svg" viewBox="0 0 128 128" aria-hidden="true"><defs><linearGradient id="bone" x2=".7" y2="1"><stop stop-color="#ded7bd"/><stop offset=".35" stop-color="#a39c89"/><stop offset=".65" stop-color="#77726c"/><stop offset="1" stop-color="#cec5ad"/></linearGradient><linearGradient id="steel" x2=".8" y2="1"><stop stop-color="#cacdd0"/><stop offset=".25" stop-color="#686c79"/><stop offset=".5" stop-color="#a4a7ad"/><stop offset="1" stop-color="#353643"/></linearGradient><linearGradient id="wood" x2="1" y2="1"><stop stop-color="#847264"/><stop offset="1" stop-color="#352a28"/></linearGradient><linearGradient id="cloth" x2=".8" y2="1"><stop stop-color="#a3977d"/><stop offset=".5" stop-color="#6d614f"/><stop offset="1" stop-color="#3b3030"/></linearGradient><linearGradient id="wing" x2="0" y2="1"><stop stop-color="#726274"/><stop offset=".5" stop-color="#3a2e40"/><stop offset="1" stop-color="#1c1825"/></linearGradient><linearGradient id="fur" x2="1" y2="1"><stop stop-color="#716474"/><stop offset="1" stop-color="#211c29"/></linearGradient><linearGradient id="stone" x2=".8" y2="1"><stop stop-color="#95989a"/><stop offset=".4" stop-color="#60636c"/><stop offset="1" stop-color="#353944"/></linearGradient><linearGradient id="ember" x2=".5" y2="1"><stop stop-color="#d5a677"/><stop offset=".45" stop-color="#aa533d"/><stop offset="1" stop-color="#592033"/></linearGradient></defs><ellipse cx="64" cy="115" rx="38" ry="5" fill="#000" opacity=".6"/><g stroke-linejoin="round" stroke-linecap="round"><path d="M64 10C38 9 22 26 23 52c0 19 8 26 17 32l2 23h44l2-23c12-8 18-20 17-34C104 26 87 10 64 10Z" fill="url(#bone)" stroke="#403a36" stroke-width="2"/><path d="M32 48c8-9 23-11 26 2l-7 20c-14 3-22-8-19-22ZM96 48c-8-9-23-11-26 2l7 20c14 3 22-8 19-22Z" fill="#0c0d12"/><path d="m64 66-9 15 9-3 9 3Z" fill="#211e25"/><path d="M43 91q21-9 42 0l-2 13H45Z" fill="#999084"/><path d="M47 89v17m8-18v19m9-19v20m9-20v19m8-18v17" stroke="#302c2b" stroke-width="2"/><path d="M69 12 64 28l9 9-7 10m-2-19-10 7M26 61l12 11-4 10M94 69l-9 8" fill="none" stroke="#625b55" stroke-width="1.5"/><path d="M35 34q11-15 27-15M80 24l11 12" fill="none" stroke="#e9e0ca" stroke-width="3"/><path d="M38 47q7-5 15 0M90 47q-7-5-15 0" fill="none" stroke="#8d8397" stroke-width="2"/></g></svg>